<?xml version="1.0"?>
<svg xmlns="http://www.w3.org/2000/svg" width="320" height="63" viewBox="0 0 126 63" class="css-1j8o68f">
<defs id="SvgjsDefs4220"></defs>
<g id="SvgjsG4221" featurekey="symbolFeature-0" transform="matrix(0.7812377998647949,0,0,0.7812377998647949,0.0007780147290313836,-18.530944996619873)" fill="#f03838">
<path xmlns="http://www.w3.org/2000/svg" d="M74.313 0l-28.094 78h8.469l28.094-78h-8.469zm-36.313 11.25l-2.188 1.406-34 22-1.813 1.156v4.25l1.688 1.219 34 24 2.313 1.594v-9.781l-26.844-18.969 26.844-17.375v-9.5zm52 0v9.5l26.844 17.375-26.844 18.969v9.781l2.313-1.594 34-24 1.688-1.219v-4.25l-1.813-1.156-34-22-2.188-1.406z" transform="translate(0 25)"></path>
</g>
<!-- <g id="SvgjsG4222" featurekey="nameFeature-0" transform="matrix(2.051703003342439,0,0,2.051703003342439,119.01518154093426,-21.255638496918426)" fill="#f03838">
<path d="M13.72 40 l-13.24 -28.88 l4.6 0 l11.32 25.36 l11.28 -25.36 l4.4 0 l-13.28 28.88 l-5.08 0 z M61.52 18.8 l-4.4 0 c-0.4 -4.04 -4.52 -5.16 -9.2 -5.16 c-4.12 0 -7.6 2.04 -7.6 5.24 c0 1.56 0.96 3.16 4.52 3.76 l10.76 1.84 c4.68 0.8 6.84 3.48 6.84 7.04 c0 5.76 -5.16 9.24 -13.72 9.24 c-8.2 0 -12.96 -3.04 -13.48 -9.4 l4.4 0 c0.12 3.88 3.84 6.12 9.32 6.12 c6 0 9.32 -2.36 9.32 -5.52 c0 -8 -22.12 -0.76 -22.12 -12.84 c0 -5.56 4.72 -8.76 12.6 -8.76 c6 0 12.36 1.8 12.76 8.44 z M93.32000000000001 31.96 l4.64 0 c-0.92 6.36 -6.92 8.8 -14 8.8 c-10.32 0 -15.08 -7.24 -15.08 -15.2 c0 -6.88 4.12 -15.2 16.24 -15.2 c6.84 0 12.08 3.44 12.44 8.36 l-4.64 0 c-0.72 -3.76 -4.12 -5.08 -8.12 -5.08 c-6.6 0 -11.52 3.8 -11.52 11.92 s4.92 11.92 11.52 11.92 c3.96 0 7.8 -1.76 8.52 -5.52 z"></path>
</g> -->
</svg>